<?xml version="1.0" encoding="utf-8"?>
<!-- Generator: Adobe Illustrator 24.3.0, SVG Export Plug-In . SVG Version: 6.00 Build 0)  -->
<svg version="1.1" id="Capa_1" xmlns="http://www.w3.org/2000/svg" xmlns:xlink="http://www.w3.org/1999/xlink" x="0px" y="0px"
	 viewBox="0 0 512 512" style="enable-background:new 0 0 512 512;" xml:space="preserve">
<style type="text/css">
	.st0{fill:#313131;}
	.st1{fill:#FAFAFA;}
</style>
<polygon class="st0" points="32,0 72.8,460.8 256,512 439.1,460.8 480,0 "/>
<polygon class="st1" points="391.5,150.7 256,150.7 176.8,150.7 181.9,208.6 256,208.6 386.4,208.6 371,382.1 256,414.2 
	255.9,414.3 141,382.1 132.9,291.4 189.2,291.4 193.4,338.5 255.9,355.5 256,355.4 256,355.4 318.6,338.4 325.1,265.1 256,265.1 
	256,265.1 130.6,265.1 115.5,94.2 256,94.2 396.5,94.2 "/>
</svg>
