<?xml version="1.0" encoding="utf-8"?>
<!-- Generator: Adobe Illustrator 24.3.0, SVG Export Plug-In . SVG Version: 6.00 Build 0)  -->
<svg version="1.1" id="Layer_1" xmlns="http://www.w3.org/2000/svg" xmlns:xlink="http://www.w3.org/1999/xlink" x="0px" y="0px"
	 viewBox="0 0 48 48" style="enable-background:new 0 0 48 48;" xml:space="preserve">
<style type="text/css">
	.st0{fill:#313131;}
	.st1{fill:#FFFFFF;}
</style>
<path class="st0" d="M6,42V6h36v36H6z"/>
<path class="st1" d="M29.5,32.9c0.7,1.1,1.4,2.2,3,2.2c1.3,0,2-0.7,2-1.6c0-1.1-0.7-1.5-2.2-2.1l-0.8-0.3c-2.3-1-3.9-2.2-3.9-4.8
	c0-2.4,1.8-4.2,4.7-4.2c2.1,0,3.5,0.7,4.6,2.6l-2.5,1.6c-0.6-1-1.2-1.4-2.1-1.4c-0.9,0-1.5,0.6-1.5,1.4c0,1,0.6,1.4,2,2l0.8,0.3
	c2.7,1.2,4.3,2.4,4.3,5c0,2.9-2.3,4.5-5.3,4.5c-3,0-4.7-1.5-5.6-3.4L29.5,32.9z M18,33c0.5,0.9,1.3,1.6,2.4,1.6c1.1,0,1.7-0.4,1.7-2
	V22h3.3v11.1c0,3.4-2,4.9-4.8,4.9c-2.6,0-4.4-1.7-5.2-3.4L18,33z"/>
</svg>
