<?xml version="1.0" encoding="utf-8"?>
<!-- Generator: Adobe Illustrator 24.3.0, SVG Export Plug-In . SVG Version: 6.00 Build 0)  -->
<svg version="1.1" id="Layer_1" xmlns="http://www.w3.org/2000/svg" xmlns:xlink="http://www.w3.org/1999/xlink" x="0px" y="0px"
	 viewBox="0 0 48 48" style="enable-background:new 0 0 48 48;" xml:space="preserve">
<style type="text/css">
	.st0{fill:#7D7D7D;}
	.st1{fill:#313131;}
	.st2{fill:#A7A7A7;}
</style>
<path class="st0" d="M17.2,19.1l-4.9,2.7c-0.2,0.1-0.3,0.3-0.3,0.5v5.4c0,0.2,0.1,0.4,0.3,0.5l4.9,2.7c0.2,0.1,0.4,0.1,0.6,0
	l4.9-2.7c0.2-0.1,0.3-0.3,0.3-0.5v-5.4c0-0.2-0.1-0.4-0.3-0.5l-4.9-2.7c-0.1-0.1-0.2-0.1-0.3-0.1C17.4,19,17.3,19.1,17.2,19.1
	 M42.5,24l-0.8,0.5c0,0,0,0,0,0.1v0.9c0,0,0,0.1,0,0.1l0.8,0.5c0,0,0.1,0,0.1,0l0.8-0.5c0,0,0,0,0-0.1v-0.9c0,0,0-0.1,0-0.1L42.5,24
	C42.5,24,42.5,24,42.5,24C42.5,24,42.5,24,42.5,24"/>
<path class="st1" d="M35.8,13.4L33.4,12c-0.1,0-0.2,0-0.2,0c-0.1,0-0.1,0.1-0.1,0.2l0,8.1l-2.2-1.2C30.7,19,30.6,19,30.5,19
	s-0.2,0-0.3,0.1h0l-4.9,2.7c-0.2,0.1-0.3,0.3-0.3,0.5v5.4c0,0.2,0.1,0.4,0.3,0.5l4.9,2.7c0.2,0.1,0.4,0.1,0.6,0l4.9-2.7
	c0.2-0.1,0.3-0.3,0.3-0.5V13.8C36,13.6,35.9,13.4,35.8,13.4z M32.9,26.5l-2.2,1.2c-0.1,0-0.2,0-0.3,0l-2.2-1.2
	c-0.1,0-0.1-0.1-0.1-0.2v-2.5c0-0.1,0.1-0.2,0.1-0.2l2.2-1.2h0c0,0,0.1,0,0.1,0s0.1,0,0.1,0l2.2,1.2c0.1,0,0.1,0.1,0.1,0.2v2.5
	C33,26.3,32.9,26.4,32.9,26.5z"/>
<path class="st1" d="M17.2,19.1L12,27.8c0,0.2,0.1,0.4,0.3,0.5l4.9,2.7c0.2,0.1,0.4,0.1,0.6,0l5.2-8.6c0-0.2-0.1-0.4-0.3-0.5
	l-4.9-2.7c-0.1-0.1-0.2-0.1-0.3-0.1C17.4,19,17.3,19.1,17.2,19.1"/>
<path class="st2" d="M17.2,19.1l-4.9,2.7c-0.2,0.1-0.3,0.3-0.3,0.5l5.2,8.6c0.2,0.1,0.4,0.1,0.6,0l4.9-2.7c0.2-0.1,0.3-0.3,0.3-0.5
	l-5.2-8.6c-0.1-0.1-0.2-0.1-0.3-0.1C17.4,19,17.3,19.1,17.2,19.1"/>
<path class="st1" d="M47.7,21.8l-4.9-2.7C42.7,19,42.6,19,42.5,19s-0.2,0-0.3,0.1h0l-4.9,2.7c-0.2,0.1-0.3,0.3-0.3,0.5v5.4
	c0,0.2,0.1,0.4,0.3,0.5l4.9,2.7c0.2,0.1,0.4,0.1,0.6,0l2.3-1.3c0.2-0.1,0.2-0.4,0-0.5l-4.9-2.7c-0.1,0-0.1-0.1-0.1-0.2v-2.5
	c0-0.1,0-0.2,0.1-0.2l2.2-1.2h0c0,0,0.1,0,0.1,0c0,0,0.1,0,0.1,0l2.2,1.2c0.1,0,0.1,0.1,0.1,0.2v2c0,0.1,0,0.2,0.1,0.2
	c0.1,0,0.2,0,0.2,0l2.4-1.4c0.1-0.1,0.2-0.2,0.2-0.4v-1.9C48,22.1,47.9,21.9,47.7,21.8z M10.7,21.8l-4.9-2.7C5.7,19,5.6,19,5.5,19
	s-0.2,0-0.3,0.1h0l-4.9,2.7C0.1,21.9,0,22.1,0,22.3v7.5c0,0.1,0,0.2,0.1,0.2c0.1,0,0.2,0,0.2,0l2.4-1.4C2.9,28.5,3,28.3,3,28.2v-4.4
	c0-0.1,0-0.2,0.1-0.2l2.2-1.2l0,0c0,0,0.1,0,0.1,0c0,0,0.1,0,0.1,0l2.2,1.2c0.1,0,0.1,0.1,0.1,0.2v4.4c0,0.2,0.1,0.3,0.2,0.4
	l2.4,1.4c0.1,0,0.2,0,0.2,0c0.1,0,0.1-0.1,0.1-0.2v-7.5C11,22.1,10.9,21.9,10.7,21.8z"/>
</svg>
