<?xml version="1.0" encoding="utf-8"?>
<!-- Generator: Adobe Illustrator 24.3.0, SVG Export Plug-In . SVG Version: 6.00 Build 0)  -->
<svg version="1.1" id="Layer_1" xmlns="http://www.w3.org/2000/svg" xmlns:xlink="http://www.w3.org/1999/xlink" x="0px" y="0px"
	 viewBox="0 0 50 50" style="enable-background:new 0 0 50 50;" xml:space="preserve">
<style type="text/css">
	.st0{fill:#313131;}
</style>
<path class="st0" d="M39.4,10.3c0.3,0.5,0.8,1.2,1.1,2.3c0.3,1,0.3,1.8,0.3,2.6c0,1.1-0.1,2-0.2,2.9c-0.1,0.7-0.1,1-0.2,1.2
	c0,0.1,0,0.2-0.1,0.4c0,0.5,0,0.7,0.1,1.1c0,0.4,0.1,0.8,0.1,1.5c0.1,1.3,0.1,2.2-0.1,3.3l0,0.4c-0.2,0.9-0.4,1.8-0.9,2.6
	c0.1,0.2,0.2,0.3,0.3,0.5c0.5-0.7,0.9-1.4,1.3-2.2c1.2-2.2,1.9-4.1,2.4-5.5c0.9-2.6,1.4-4.5,1.7-5.9c0.7-3,0.8-4.4,0.5-6
	c0-0.5-0.2-1.4-0.7-2.3c-1.1-2-2.8-2.9-4-3.5c-0.8-0.4-2.9-1.5-5.8-1.6c-1.5,0-2.8,0.3-4,0.6c2.1,0.9,3.4,2,4.1,2.5
	C36.9,6.6,37.8,8,39.4,10.3z"/>
<path class="st0" d="M35.9,27.5c-0.6-1.1-0.7-1.4-0.8-1.9c-0.1-0.4-0.3-0.9-1-2.4c-1.5-3.4-1.7-4.4-1.7-5.2c-0.1-1.1-0.2-2.6,1-3.6
	c1.8-1.6,4.1-1.5,5.3-1.1c0-0.1,0-0.1,0-0.2c-0.2-0.8-0.6-1.4-0.9-1.8c-1.5-2.3-2.3-3.5-3.7-4.7c-0.6-0.5-2.1-1.7-4.3-2.5
	c-1-0.3-2.2-0.7-3.7-0.7c-0.5,0-1,0-1.5,0.1c-2,0.4-3.9,1.5-5.4,3.4s-1.9,3.7-2.3,5.8c-0.2,0.8-0.2,1.5-0.3,2.3
	c0.6-0.5,1.4-1.1,2.6-1.4c0.7-0.2,2.5-0.8,4,0.1c0.5,0.3,1.2,0.9,1.9,2.6c1.5,4.2,0,8.5-0.2,8.9c-0.1,0.4-0.3,0.7-0.4,0.9
	c-0.2,0.5-0.4,0.9-0.6,1.7c-0.1,0.7-0.2,1.3-0.2,2c0.3,0,0.6,0.1,0.9,0.3c0.5,0.5,0.6,1.2,0.7,1.5c0.2,1.6,0.2,3.6,0.2,5.6
	c0,1.6,0,3.1,0.1,4.1c0.2,2.3,0.9,3.9,1.9,4.7c0.7,0.6,1.6,0.6,2.1,0.7c0.1,0,0.1,0,0.2,0c1.5,0,3.9-1,4.8-2.4
	c0.5-0.8,0.7-1.5,0.9-2.5c0.1-0.6,0.1-0.9,0.2-1.5c0-0.3,0.1-0.8,0.1-1.4c0-0.5,0.1-1.1,0.2-1.8c0.1-1.7,0.4-3.7,0.5-4.8
	c0.1-1.3,0.7-2.4,1.2-3.1C37,29.1,36.3,28.5,35.9,27.5z"/>
<path class="st0" d="M38.5,19.1c0-0.2,0.1-0.5,0.2-1.1c0.1-0.8,0.2-1.5,0.2-2.3c-0.2-0.1-0.3-0.2-0.5-0.3c0,0-2.1-0.9-3.7,0.5
	c-0.4,0.4-0.4,1.2-0.3,1.9c0,0.5,0.1,1.2,1.6,4.6c0.7,1.6,0.9,2.1,1,2.5s0.2,0.6,0.8,1.7c0.1,0.2,0.2,0.4,0.4,0.6
	c0.2-0.3,0.3-0.8,0.4-1.6l0.1-0.3c0.2-0.9,0.1-1.6,0.1-2.8c0-0.6-0.1-1-0.1-1.3c-0.1-0.5-0.1-0.9-0.1-1.5
	C38.4,19.4,38.4,19.3,38.5,19.1z M36.6,17c-0.1,0.1-0.3,0.3-0.6,0.4c-0.4,0.1-0.7-0.2-0.8-0.2c-0.1-0.1-0.4-0.4-0.3-0.7
	c0.1-0.2,0.2-0.2,0.6-0.3c0.3-0.1,1.1-0.2,1.3,0C37.1,16.4,36.7,16.9,36.6,17z M23.1,17.2c-0.3-0.8-0.6-1.3-1-1.5
	c-0.7-0.4-1.8-0.1-2.4,0.1c-1.1,0.3-1.8,1-2.3,1.4c-0.3,0.3-0.6,0.6-0.9,1c0,0.7,0.1,1.4,0.2,2.1v0.1l-0.2,2
	c-0.2,0.9-0.3,2.6,0.7,4.3c0.5,1,1.2,1.8,2.1,2.3c0.6,0.4,1.4,0.7,2.3,0.9c0-0.7,0.1-1.5,0.2-2.2c0.2-1,0.4-1.5,0.7-2.1
	c0.1-0.3,0.2-0.5,0.4-0.8C23,24.5,24.4,20.7,23.1,17.2z M22.3,18.1c-0.3,0.3-0.8,0.3-0.8,0.3c-0.5,0-0.8-0.3-1-0.6
	c-0.1-0.1-0.2-0.3-0.1-0.5s0.3-0.3,0.4-0.3c0.5-0.2,0.9,0,1.2,0.1c0.3,0.1,0.6,0.2,0.6,0.4C22.7,17.8,22.4,18,22.3,18.1z M40.3,33.4
	c1.6-0.2,2.7-1,2.9-1.2c0.7-0.5,1.6-1.5,1.4-1.9c-0.1-0.2-0.4-0.1-2,0c-0.4,0-1.6,0.3-2.4,0.1c-0.1,0-0.1,0-0.2,0
	c-0.2-0.1-0.4-0.2-0.5-0.4l0,0c-0.5,0.7-1.2,1.6-1.3,2.8c0,0.2,0,0.3-0.1,0.5C38.9,33.5,39.6,33.5,40.3,33.4z"/>
<path class="st0" d="M18.7,30.8c-0.1-0.1-0.3-0.1-0.4-0.2c-1.2-0.7-2.1-1.8-2.8-3c-1.2-2.2-1.1-4.4-0.9-5.5l0.1-1.7
	c-0.4-2.7-0.3-5.3,0.2-7.9c0.4-2.2,0.9-4.4,2.7-6.7c0.6-0.8,1.3-1.5,2-2c-1.6-0.7-3.3-1.1-5-1.2c-1.3-0.1-3.1-0.2-5.2,0.8
	c-0.5,0.2-2,0.9-3.2,2.5c-0.8,1-1.4,2.5-1.7,4.2c-0.3,1.5-0.4,3.3,0.2,6.7c0.4,2.4,0.8,4,1.6,7.3c0.1,0.4,0.7,2.2,2,6.2l0.1,0.2
	c0.2,0.7,0.8,2.2,2.1,3.7c0.9,1,1.7,1.6,2.4,1.6c0.1,0,0.1,0,0.2,0c1.3,0,2.2-1,3-1.8C16.1,33.9,18,31.6,18.7,30.8z M23.3,32.1h-0.1
	c-0.3,0-0.7,0-1.1-0.1c-0.2,0.3-0.5,0.5-0.7,0.7c-0.8,0.5-1.8,0.9-2.8,1.1c-0.9,0.3-1.4,0.3-1.4,0.6c-0.1,0.4,0.9,0.9,1.4,1.1
	c1.7,0.7,3.4,0.3,3.7,0.2c0.2-0.1,0.7-0.3,1.2-0.6C23.5,34,23.4,33,23.3,32.1C23.3,32.2,23.3,32.1,23.3,32.1z"/>
</svg>
