<svg fill="#000000" xmlns="http://www.w3.org/2000/svg"  viewBox="0 0 50 50" width="50px" height="50px"><path d="M39.4,10.3c0.3,0.5,0.8,1.2,1.1,2.3c0.3,1,0.3,1.8,0.3,2.6c0,1.1-0.1,2-0.2,2.9c-0.1,0.7-0.1,1-0.2,1.2c0,0.1,0,0.2-0.1,0.4c0,0.5,0,0.7,0.1,1.1c0,0.4,0.1,0.8,0.1,1.5c0.1,1.3,0.1,2.2-0.1,3.3L40.4,26c-0.2,0.9-0.4,1.8-0.9,2.6c0.1,0.2,0.2,0.3,0.3,0.5c0.5-0.7,0.9-1.4,1.3-2.2c1.2-2.2,1.9-4.1,2.4-5.5c0.9-2.6,1.4-4.5,1.7-5.9c0.7-3,0.8-4.4,0.5-6C45.7,9,45.5,8.1,45,7.2c-1.1-2-2.8-2.9-4-3.5c-0.8-0.4-2.9-1.5-5.8-1.6c-1.5,0-2.8,0.3-4,0.6c2.1,0.9,3.4,2,4.1,2.5C36.9,6.6,37.8,8,39.4,10.3z"/><path d="M35.9,27.5c-0.6-1.1-0.7-1.4-0.8-1.9c-0.1-0.4-0.3-0.9-1-2.4c-1.5-3.4-1.7-4.4-1.7-5.2c-0.1-1.1-0.2-2.6,1-3.6c1.8-1.6,4.1-1.5,5.3-1.1c0-0.1,0-0.1,0-0.2c-0.2-0.8-0.6-1.4-0.9-1.8c-1.5-2.3-2.3-3.5-3.7-4.7c-0.6-0.5-2.1-1.7-4.3-2.5c-1-0.3-2.2-0.7-3.7-0.7c-0.5,0-1,0-1.5,0.1c-2,0.4-3.9,1.5-5.4,3.4c-1.5,1.9-1.9,3.7-2.3,5.8c-0.2,0.8-0.2,1.5-0.3,2.3c0.6-0.5,1.4-1.1,2.6-1.4c0.7-0.2,2.5-0.8,4,0.1c0.5,0.3,1.2,0.9,1.9,2.6c1.5,4.2,0,8.5-0.2,8.9c-0.1,0.4-0.3,0.7-0.4,0.9c-0.2,0.5-0.4,0.9-0.6,1.7c-0.1,0.7-0.2,1.3-0.2,2c0.3,0,0.6,0.1,0.9,0.3c0.5,0.5,0.6,1.2,0.7,1.5c0.2,1.6,0.2,3.6,0.2,5.6c0,1.6,0,3.1,0.1,4.1c0.2,2.3,0.9,3.9,1.9,4.7c0.7,0.6,1.6,0.6,2.1,0.7c0.1,0,0.1,0,0.2,0c1.5,0,3.9-1,4.8-2.4c0.5-0.8,0.7-1.5,0.9-2.5c0.1-0.6,0.1-0.9,0.2-1.5c0-0.3,0.1-0.8,0.1-1.4c0-0.5,0.1-1.1,0.2-1.8c0.1-1.7,0.4-3.7,0.5-4.8c0.1-1.3,0.7-2.4,1.2-3.1C37,29.1,36.3,28.5,35.9,27.5z"/><path d="M38.5 19.1c0-.2.1-.5.2-1.1.1-.8.2-1.5.2-2.3-.2-.1-.3-.2-.5-.3 0 0-2.1-.9-3.7.5-.4.4-.4 1.2-.3 1.9 0 .5.1 1.2 1.6 4.6.7 1.6.9 2.1 1 2.5.1.4.2.6.8 1.7.1.2.2.4.4.6.2-.3.3-.8.4-1.6l.1-.3c.2-.9.1-1.6.1-2.8 0-.6-.1-1-.1-1.3-.1-.5-.1-.9-.1-1.5C38.4 19.4 38.4 19.3 38.5 19.1zM36.6 17c-.1.1-.3.3-.6.4-.4.1-.7-.2-.8-.2-.1-.1-.4-.4-.3-.7.1-.2.2-.2.6-.3.3-.1 1.1-.2 1.3 0C37.1 16.4 36.7 16.9 36.6 17zM23.1 17.2c-.3-.8-.6-1.3-1-1.5-.7-.4-1.8-.1-2.4.1-1.1.3-1.8 1-2.3 1.4-.3.3-.6.6-.9 1 0 .7.1 1.4.2 2.1l0 .1-.2 2c-.2.9-.3 2.6.7 4.3.5 1 1.2 1.8 2.1 2.3.6.4 1.4.7 2.3.9 0-.7.1-1.5.2-2.2.2-1 .4-1.5.7-2.1.1-.3.2-.5.4-.8C23 24.5 24.4 20.7 23.1 17.2zM22.3 18.1c-.3.3-.8.3-.8.3-.5 0-.8-.3-1-.6-.1-.1-.2-.3-.1-.5.1-.2.3-.3.4-.3.5-.2.9 0 1.2.1.3.1.6.2.6.4C22.7 17.8 22.4 18 22.3 18.1zM40.3 33.4c1.6-.2 2.7-1 2.9-1.2.7-.5 1.6-1.5 1.4-1.9-.1-.2-.4-.1-2 0-.4 0-1.6.3-2.4.1-.1 0-.1 0-.2 0-.2-.1-.4-.2-.5-.4 0 0 0 0 0 0-.5.7-1.2 1.6-1.3 2.8 0 .2 0 .3-.1.5C38.9 33.5 39.6 33.5 40.3 33.4z"/><path d="M18.7 30.8c-.1-.1-.3-.1-.4-.2-1.2-.7-2.1-1.8-2.8-3-1.2-2.2-1.1-4.4-.9-5.5l.1-1.7c-.4-2.7-.3-5.3.2-7.9.4-2.2.9-4.4 2.7-6.7.6-.8 1.3-1.5 2-2-1.6-.7-3.3-1.1-5-1.2-1.3-.1-3.1-.2-5.2.8C8.9 3.6 7.4 4.3 6.2 5.9c-.8 1-1.4 2.5-1.7 4.2-.3 1.5-.4 3.3.2 6.7.4 2.4.8 4 1.6 7.3.1.4.7 2.2 2 6.2l.1.2c.2.7.8 2.2 2.1 3.7.9 1 1.7 1.6 2.4 1.6.1 0 .1 0 .2 0 1.3 0 2.2-1 3-1.8C16.1 33.9 18 31.6 18.7 30.8zM23.3 32.1c0 0-.1 0-.1 0-.3 0-.7 0-1.1-.1-.2.3-.5.5-.7.7-.8.5-1.8.9-2.8 1.1-.9.3-1.4.3-1.4.6-.1.4.9.9 1.4 1.1 1.7.7 3.4.3 3.7.2.2-.1.7-.3 1.2-.6 0-1.1-.1-2.1-.2-2.9C23.3 32.2 23.3 32.1 23.3 32.1z"/></svg>