<?xml version="1.0" encoding="utf-8"?>
<!-- Generator: Adobe Illustrator 24.3.0, SVG Export Plug-In . SVG Version: 6.00 Build 0)  -->
<svg version="1.1" id="Layer_1" xmlns="http://www.w3.org/2000/svg" xmlns:xlink="http://www.w3.org/1999/xlink" x="0px" y="0px"
	 viewBox="0 0 16 16" style="enable-background:new 0 0 16 16;" xml:space="preserve">
<style type="text/css">
	.st0{fill:#313131;}
</style>
<path class="st0" d="M9.3,8c0,0.7-0.6,1.3-1.3,1.3S6.7,8.7,6.7,8S7.3,6.7,8,6.7S9.3,7.3,9.3,8z"/>
<path class="st0" d="M8,9.4C7.2,9.4,6.6,8.8,6.6,8S7.2,6.6,8,6.6S9.4,7.2,9.4,8S8.8,9.4,8,9.4z M8,6.8C7.3,6.8,6.8,7.3,6.8,8
	S7.3,9.2,8,9.2S9.2,8.7,9.2,8S8.7,6.8,8,6.8z"/>
<g>
	<path class="st0" d="M4.9,15.1c-0.3,0-0.7-0.1-0.9-0.2c-0.5-0.3-0.8-0.7-0.9-1.3c-0.2-0.7-0.2-1.7,0.1-2.8c-1.9-0.7-3-1.7-3-2.8
		c0-1.1,1.1-2.1,3-2.8C2.9,4.1,2.8,3.2,3,2.5C3.2,1.8,3.5,1.4,4,1.1C4.2,1,4.6,0.9,4.9,0.9c0.9,0,2,0.5,3.1,1.5
		c1.1-1,2.2-1.5,3.1-1.5c0.3,0,0.7,0.1,0.9,0.2c0.5,0.3,0.8,0.7,0.9,1.3c0.2,0.7,0.2,1.7-0.1,2.8c1.9,0.7,3,1.7,3,2.8
		s-1.1,2.1-3,2.8c0.2,1.1,0.3,2.1,0.1,2.8c-0.2,0.6-0.5,1.1-0.9,1.3c-0.3,0.2-0.6,0.2-0.9,0.2c-0.9,0-2-0.5-3.1-1.5
		C6.9,14.6,5.8,15.1,4.9,15.1z M3.9,11c-0.2,0.9-0.2,1.7-0.1,2.3c0.1,0.4,0.3,0.7,0.6,0.8c0.2,0.1,0.3,0.1,0.5,0.1
		c0.7,0,1.6-0.5,2.5-1.3c-0.5-0.5-0.9-1-1.4-1.6C5.3,11.3,4.5,11.2,3.9,11z M8.6,13c1,0.8,1.8,1.3,2.5,1.3c0.2,0,0.4,0,0.5-0.1
		c0.3-0.1,0.4-0.4,0.6-0.8c0.2-0.6,0.1-1.4-0.1-2.3c-0.7,0.2-1.4,0.3-2.2,0.4C9.5,12,9.1,12.5,8.6,13z M7.1,11.5
		c0.3,0.4,0.6,0.7,0.9,1c0.3-0.3,0.6-0.6,0.9-1c-0.3,0-0.6,0-0.9,0C7.7,11.5,7.4,11.5,7.1,11.5z M6.5,10.6c0.5,0,1,0.1,1.5,0.1
		c0.5,0,1,0,1.5-0.1c0.3-0.4,0.6-0.9,0.8-1.3c0.3-0.4,0.5-0.9,0.7-1.3c-0.2-0.5-0.5-0.9-0.7-1.3c-0.3-0.4-0.5-0.9-0.8-1.3
		C9,5.3,8.5,5.3,8,5.3c-0.5,0-1,0-1.5,0.1C6.2,5.8,5.9,6.2,5.6,6.7C5.4,7.1,5.1,7.5,4.9,8c0.2,0.5,0.5,0.9,0.7,1.3
		C5.9,9.8,6.2,10.2,6.5,10.6z M11.5,9c-0.1,0.3-0.3,0.5-0.4,0.8c-0.2,0.3-0.3,0.5-0.5,0.8c0.5-0.1,0.9-0.2,1.4-0.3
		C11.8,9.8,11.7,9.4,11.5,9z M4.1,10.2c0.4,0.1,0.9,0.2,1.4,0.3C5.2,10.3,5.1,10,4.9,9.7C4.8,9.5,4.6,9.2,4.5,9
		C4.3,9.4,4.2,9.8,4.1,10.2z M12,8c0.3,0.7,0.6,1.3,0.7,2c1.5-0.5,2.4-1.3,2.4-2s-0.9-1.5-2.4-2C12.5,6.7,12.3,7.3,12,8z M3.3,6
		C1.8,6.5,0.9,7.3,0.9,8c0,0.7,0.9,1.5,2.4,2C3.5,9.3,3.7,8.7,4,8C3.7,7.3,3.5,6.7,3.3,6z M4.1,5.8C4.2,6.2,4.3,6.6,4.5,7
		c0.1-0.3,0.3-0.5,0.4-0.8C5.1,6,5.2,5.7,5.4,5.5C4.9,5.6,4.5,5.7,4.1,5.8z M10.6,5.5c0.2,0.3,0.3,0.5,0.5,0.8
		c0.1,0.3,0.3,0.5,0.4,0.8c0.2-0.4,0.3-0.9,0.4-1.3C11.5,5.7,11.1,5.6,10.6,5.5z M4.9,1.7c-0.2,0-0.4,0-0.5,0.1
		C4.1,2,3.9,2.3,3.8,2.7C3.6,3.3,3.7,4.1,3.9,5C4.5,4.8,5.3,4.7,6,4.6C6.5,4,6.9,3.5,7.4,3C6.5,2.2,5.6,1.7,4.9,1.7z M10,4.6
		c0.8,0.1,1.5,0.2,2.2,0.4c0.2-0.9,0.2-1.7,0.1-2.3c-0.1-0.4-0.3-0.7-0.6-0.8c-0.2-0.1-0.3-0.1-0.5-0.1c-0.7,0-1.6,0.5-2.5,1.3
		C9.1,3.5,9.5,4,10,4.6z M8,4.5c0.3,0,0.6,0,0.9,0C8.6,4.2,8.3,3.8,8,3.5c-0.3,0.3-0.6,0.6-0.9,1C7.4,4.5,7.7,4.5,8,4.5z"/>
	<path class="st0" d="M4.9,1c0.9,0,2,0.6,3.1,1.6c1.1-1,2.2-1.6,3.1-1.6c0.3,0,0.6,0.1,0.9,0.2c0.4,0.2,0.7,0.7,0.9,1.3
		c0.2,0.8,0.2,1.7-0.1,2.8c1.8,0.6,3,1.6,3,2.7s-1.2,2.1-3,2.7c0.3,1.2,0.3,2.1,0.1,2.8c-0.2,0.6-0.5,1-0.9,1.3
		c-0.3,0.1-0.5,0.2-0.8,0.2c0,0-0.1,0-0.1,0c-0.9,0-2-0.6-3.1-1.6c-1.1,1-2.2,1.6-3.1,1.6c-0.3,0-0.6-0.1-0.9-0.2
		c-0.4-0.2-0.7-0.7-0.9-1.3c-0.2-0.7-0.2-1.7,0.1-2.8c-1.8-0.6-3-1.6-3-2.7c0-1.1,1.2-2.1,3-2.7C3.1,4.7,3,4.1,3,3.6
		C3,3.2,3,2.8,3.1,2.5c0.2-0.6,0.5-1,0.9-1.3C4.3,1.1,4.6,1,4.9,1 M3.8,5.1c0.7-0.2,1.5-0.3,2.3-0.4c0.5-0.6,1-1.2,1.5-1.7
		c-1-0.9-1.9-1.4-2.7-1.4c-0.2,0-0.4,0-0.6,0.1C4,1.9,3.8,2.2,3.7,2.6C3.5,3.3,3.6,4.1,3.8,5.1 M12.2,5.1c0.2-1,0.3-1.8,0.1-2.5
		c-0.1-0.4-0.3-0.7-0.6-0.9c-0.2-0.1-0.4-0.1-0.6-0.1c-0.7,0-1.7,0.5-2.7,1.4c0.5,0.5,1,1.1,1.5,1.7C10.7,4.8,11.5,4.9,12.2,5.1
		 M6.9,4.6c0.4,0,0.7,0,1.1,0c0.4,0,0.8,0,1.1,0C8.7,4.2,8.4,3.8,8,3.4C7.6,3.8,7.3,4.2,6.9,4.6 M8,10.8c0.6,0,1.1,0,1.6-0.1
		c0.3-0.4,0.6-0.9,0.9-1.3C10.7,8.9,11,8.5,11.2,8c-0.2-0.5-0.5-0.9-0.7-1.4c-0.3-0.5-0.6-0.9-0.9-1.3c-0.5,0-1-0.1-1.6-0.1
		s-1.1,0-1.6,0.1C6.1,5.7,5.8,6.1,5.5,6.6C5.3,7.1,5,7.5,4.8,8C5,8.5,5.3,8.9,5.5,9.4c0.3,0.5,0.6,0.9,0.9,1.3
		C6.9,10.8,7.4,10.8,8,10.8 M11.5,7.3c0.2-0.5,0.4-1.1,0.6-1.6c-0.5-0.1-1.1-0.3-1.7-0.3C10.6,5.7,10.8,6,11,6.3
		C11.2,6.6,11.3,7,11.5,7.3 M4.5,7.3C4.7,7,4.8,6.6,5,6.3C5.2,6,5.4,5.7,5.6,5.4C5,5.4,4.4,5.6,3.9,5.7C4.1,6.2,4.3,6.7,4.5,7.3
		 M12.6,10.1c1.6-0.5,2.6-1.4,2.6-2.1s-0.9-1.6-2.6-2.1c-0.2,0.7-0.5,1.4-0.8,2.1C12.2,8.7,12.4,9.4,12.6,10.1 M3.4,10.1
		C3.6,9.4,3.8,8.7,4.1,8C3.8,7.3,3.6,6.6,3.4,5.9C1.7,6.4,0.8,7.2,0.8,8C0.8,8.8,1.7,9.6,3.4,10.1 M10.4,10.6
		c0.6-0.1,1.2-0.2,1.7-0.3c-0.1-0.5-0.3-1-0.6-1.6c-0.2,0.3-0.3,0.7-0.5,1C10.8,10,10.6,10.3,10.4,10.6 M5.6,10.6
		C5.4,10.3,5.2,10,5,9.7C4.8,9.4,4.7,9,4.5,8.7c-0.2,0.5-0.4,1.1-0.6,1.6C4.4,10.4,5,10.6,5.6,10.6 M4.9,14.4c0.7,0,1.7-0.5,2.7-1.4
		c-0.5-0.5-1-1.1-1.5-1.7c-0.8-0.1-1.6-0.2-2.3-0.4c-0.2,1-0.3,1.8-0.1,2.5c0.1,0.4,0.3,0.7,0.6,0.9C4.5,14.4,4.7,14.4,4.9,14.4
		 M11.1,14.4L11.1,14.4c0.2,0,0.4,0,0.6-0.1c0.3-0.2,0.5-0.5,0.6-0.9c0.2-0.6,0.1-1.5-0.1-2.5c-0.7,0.2-1.5,0.3-2.3,0.4
		c-0.5,0.6-1,1.2-1.5,1.7C9.4,13.9,10.4,14.4,11.1,14.4 M8,12.6c0.4-0.4,0.7-0.8,1.1-1.2c-0.4,0-0.7,0.1-1.1,0.1
		c-0.4,0-0.8,0-1.1-0.1C7.3,11.8,7.6,12.2,8,12.6 M4.8,0.8C4.5,0.8,4.2,0.9,3.9,1c-0.5,0.3-0.8,0.7-1,1.4C2.7,3.1,2.8,4.1,3,5.2
		C1.1,5.8,0,6.9,0,8c0,1.1,1.1,2.2,3,2.8c-0.2,1.1-0.2,2,0,2.7c0.2,0.6,0.5,1.1,1,1.4c0.3,0.2,0.6,0.2,1,0.2c0.9,0,2-0.5,3.1-1.5
		c1.1,1,2.2,1.5,3.1,1.5c0.4,0,0.7-0.1,1-0.2c0.5-0.3,0.8-0.7,1-1.4c0.2-0.7,0.2-1.7,0-2.7c1.9-0.7,3-1.7,3-2.8s-1.1-2.2-3-2.8
		c0.2-1.1,0.2-2,0-2.7c-0.2-0.6-0.5-1.1-1-1.4c-0.3-0.2-0.6-0.2-1-0.2c-0.9,0-2,0.5-3.1,1.5C6.9,1.3,5.8,0.8,4.8,0.8L4.8,0.8z
		 M3.9,4.9C3.9,4.4,3.8,4,3.8,3.6c0-0.3,0-0.6,0.1-0.9C4,2.3,4.2,2,4.4,1.9c0.1-0.1,0.3-0.1,0.5-0.1c0.6,0,1.5,0.4,2.4,1.2
		C6.8,3.4,6.4,4,6,4.5C5.3,4.6,4.6,4.7,3.9,4.9L3.9,4.9z M8.7,3c0.9-0.8,1.7-1.2,2.4-1.2c0.2,0,0.3,0,0.5,0.1
		c0.2,0.1,0.4,0.4,0.5,0.8c0.2,0.6,0.2,1.3,0,2.2c-0.6-0.2-1.3-0.3-2-0.4C9.6,4,9.2,3.4,8.7,3L8.7,3z M7.3,4.4
		C7.6,4.2,7.8,3.9,8,3.7c0.2,0.2,0.4,0.5,0.7,0.7c-0.2,0-0.4,0-0.7,0C7.8,4.4,7.6,4.4,7.3,4.4L7.3,4.4z M6.5,5.5
		c0.5,0,1-0.1,1.5-0.1c0.5,0,1,0,1.5,0.1c0.3,0.4,0.6,0.8,0.8,1.3C10.5,7.1,10.8,7.6,11,8c-0.2,0.4-0.4,0.9-0.7,1.3
		c-0.3,0.4-0.5,0.8-0.8,1.3c-0.5,0-1,0.1-1.5,0.1c-0.5,0-1-0.1-1.5-0.1C6.2,10.1,6,9.7,5.7,9.3C5.5,8.9,5.2,8.4,5,8
		c0.2-0.4,0.4-0.9,0.7-1.3C6,6.3,6.2,5.9,6.5,5.5L6.5,5.5z M11.5,6.8c-0.1-0.2-0.2-0.4-0.3-0.6C11,6,10.9,5.8,10.8,5.6
		c0.4,0.1,0.7,0.1,1,0.2C11.7,6.2,11.6,6.5,11.5,6.8L11.5,6.8z M4.2,5.8c0.3-0.1,0.7-0.2,1-0.2C5.1,5.8,5,6,4.9,6.2
		C4.7,6.4,4.6,6.6,4.5,6.8C4.4,6.5,4.3,6.2,4.2,5.8L4.2,5.8z M12.1,8c0.3-0.6,0.5-1.3,0.7-1.9C14.2,6.6,15,7.3,15,8
		s-0.8,1.4-2.2,1.9C12.6,9.3,12.4,8.6,12.1,8L12.1,8z M3.2,9.9C1.8,9.4,1,8.7,1,8s0.8-1.4,2.2-1.9C3.4,6.7,3.6,7.4,3.9,8
		C3.6,8.6,3.4,9.3,3.2,9.9L3.2,9.9z M10.8,10.4c0.1-0.2,0.2-0.4,0.4-0.6c0.1-0.2,0.2-0.4,0.3-0.6c0.1,0.3,0.2,0.7,0.3,1
		C11.5,10.2,11.1,10.3,10.8,10.4L10.8,10.4z M4.2,10.2c0.1-0.3,0.2-0.6,0.3-1c0.1,0.2,0.2,0.4,0.3,0.6C5,10,5.1,10.2,5.2,10.4
		C4.9,10.3,4.5,10.2,4.2,10.2L4.2,10.2z M4.9,14.2c-0.2,0-0.3,0-0.5-0.1c-0.2-0.1-0.4-0.4-0.5-0.8c-0.2-0.6-0.1-1.3,0-2.2
		c0.6,0.2,1.3,0.3,2,0.4C6.4,12,6.8,12.6,7.3,13C6.4,13.8,5.5,14.2,4.9,14.2L4.9,14.2L4.9,14.2z M10,11.5c0.7-0.1,1.4-0.2,2-0.4
		c0.2,0.9,0.2,1.7,0,2.2c-0.1,0.4-0.3,0.6-0.5,0.8c-0.1,0.1-0.3,0.1-0.5,0.1v0.2l0-0.2c-0.6,0-1.5-0.4-2.4-1.2
		C9.2,12.6,9.6,12,10,11.5L10,11.5z M8,12.3c-0.2-0.2-0.4-0.5-0.7-0.7c0.2,0,0.4,0,0.7,0c0.2,0,0.4,0,0.7,0
		C8.4,11.8,8.2,12.1,8,12.3L8,12.3z"/>
</g>
</svg>
