<?xml version="1.0" encoding="utf-8"?>
<!-- Generator: Adobe Illustrator 24.3.0, SVG Export Plug-In . SVG Version: 6.00 Build 0)  -->
<svg version="1.1" id="Layer_1" xmlns="http://www.w3.org/2000/svg" xmlns:xlink="http://www.w3.org/1999/xlink" x="0px" y="0px"
	 viewBox="0 0 48 48" style="enable-background:new 0 0 48 48;" xml:space="preserve">
<style type="text/css">
	.st0{fill:#313131;}
</style>
<path class="st0" d="M23,4c-6.6,0-12,7.3-12,16.2c0,4.8,1.6,9.2,4.1,12.1c0,0.2-0.1,0.4-0.1,0.7c0,1.7,1.3,3,3,3s3-1.3,3-3
	s-1.3-3-3-3c-0.3,0-0.6,0.1-0.9,0.2c-1.9-2.4-3.1-6-3.1-9.9C14,12.9,18,7,23,7c3.8,0,7.1,3.5,8.4,8.5c1.1,0.3,2.2,0.8,3.3,1.3
	C33.6,9.5,28.8,4,23,4z"/>
<path class="st0" d="M35.5,20.1c-3.9-2.4-8.4-3.4-12.2-3C22.8,16.4,21.9,16,21,16c-1.7,0-3,1.3-3,3s1.3,3,3,3c1.3,0,2.4-0.8,2.8-1.9
	c3.1-0.4,6.8,0.5,10.2,2.6c6.4,3.9,9.7,10.6,7.3,14.9c-0.8,1.5-2.3,2.6-4.2,3.1c-2.3,0.6-5,0.4-7.7-0.5c-0.8,0.8-1.7,1.5-2.7,2.2
	c2.6,1.1,5.2,1.7,7.7,1.7c1.2,0,2.4-0.1,3.6-0.4c2.7-0.7,4.8-2.3,6.1-4.5C47,33.3,43.3,24.8,35.5,20.1z"/>
<path class="st0" d="M35,29c0-1.7-1.3-3-3-3s-3,1.3-3,3c0,0.7,0.2,1.3,0.6,1.8c-1.3,2.8-3.7,5.6-7.1,7.6c-3.9,2.3-8.2,3.2-11.6,2.3
	c-1.9-0.5-3.4-1.6-4.2-3.1c-1.7-3.1-0.5-7.4,2.6-11c-0.3-1.1-0.6-2.3-0.7-3.6c-5.1,4.8-7.1,11.3-4.5,16c1.2,2.2,3.3,3.8,6.1,4.5
	c1.1,0.3,2.3,0.4,3.6,0.4c3.3,0,7-1.1,10.3-3.1c3.8-2.3,6.7-5.6,8.2-9C33.8,31.8,35,30.5,35,29z"/>
</svg>
