<?xml version="1.0" encoding="utf-8"?>
<!-- Generator: Adobe Illustrator 24.3.0, SVG Export Plug-In . SVG Version: 6.00 Build 0)  -->
<svg version="1.1" id="Layer_1" xmlns="http://www.w3.org/2000/svg" xmlns:xlink="http://www.w3.org/1999/xlink" x="0px" y="0px"
	 viewBox="0 0 24 24" style="enable-background:new 0 0 24 24;" xml:space="preserve">
<style type="text/css">
	.st0{fill:#313131;}
</style>
<path class="st0" d="M10.3,9.7c-0.3-0.2-0.4-0.4-0.6-0.8C9.7,8.5,9.6,8.1,9.6,7.4V6.6c0-0.6,0.1-1.1,0.2-1.5
	c0.1-0.4,0.3-0.7,0.6-0.8C10.6,4.1,11,4,11.4,4c0.4,0,0.8,0.1,1,0.3s0.4,0.5,0.6,0.8c0.1,0.4,0.2,0.9,0.2,1.5v0.8
	c0,0.6-0.1,1.1-0.2,1.5c-0.1,0.4-0.3,0.6-0.6,0.8c-0.3,0.2-0.6,0.3-1.1,0.3C10.9,10,10.6,9.9,10.3,9.7z M11.8,8.8
	c0.1-0.2,0.1-0.5,0.1-0.9V6.1c0-0.4,0-0.7-0.1-0.9c-0.1-0.2-0.2-0.3-0.4-0.3c-0.2,0-0.3,0.1-0.4,0.3c-0.1,0.2-0.1,0.5-0.1,0.9v1.8
	c0,0.4,0,0.7,0.1,0.9c0.1,0.2,0.2,0.3,0.4,0.3C11.6,9.1,11.7,9,11.8,8.8z M7.2,7.3L5.7,2H7l0.5,2.4C7.6,5,7.7,5.5,7.8,5.9h0
	c0-0.3,0.1-0.8,0.3-1.5L8.6,2h1.3L8.4,7.3v2.6H7.2V7.3z M17.4,4.1v5.8h-1l-0.1-0.7h0C16,9.7,15.6,10,15,10c-0.4,0-0.7-0.1-0.8-0.4
	C14,9.4,13.9,9,13.9,8.4V4.1h1.3v4.2c0,0.3,0,0.4,0.1,0.6s0.2,0.2,0.3,0.2c0.1,0,0.2,0,0.3-0.1c0.1-0.1,0.2-0.2,0.2-0.3V4.1H17.4z"
	/>
<g>
	<path class="st0" d="M17.3,15.8c-0.1-0.1-0.1-0.1-0.3-0.1s-0.2,0-0.3,0.1c-0.1,0.1-0.1,0.2-0.1,0.3c0,0.2,0,0.4,0,0.7v0.4h0.8v-0.4
		c0-0.3,0-0.5,0-0.7C17.4,16,17.4,15.9,17.3,15.8z M13.9,15.9c-0.1-0.1-0.1-0.1-0.3-0.1c-0.1,0-0.2,0-0.3,0.1s-0.2,0.2-0.2,0.3v2.8
		c0,0.1,0.1,0.1,0.2,0.2c0.1,0,0.2,0.1,0.3,0.1c0.1,0,0.2,0,0.3-0.1c0.1-0.1,0.1-0.2,0.1-0.4c0-0.2,0-0.5,0-0.8v-0.6
		c0-0.4,0-0.7,0-0.9S13.9,15.9,13.9,15.9z"/>
	<path class="st0" d="M19,11H5c-1.1,0-2,0.9-2,2v7c0,1.1,0.9,2,2,2h14c1.1,0,2-0.9,2-2v-7C21,11.9,20.1,11,19,11z M7.6,19.9H6.6
		v-5.8H5.5v-0.9h3.3v0.9H7.6V19.9z M11.4,19.9h-0.9l-0.1-0.6h0C10.2,19.8,9.8,20,9.4,20c-0.3,0-0.6-0.1-0.7-0.3
		c-0.2-0.2-0.2-0.5-0.2-1V15h1.1v3.6c0,0.2,0,0.4,0.1,0.5c0,0.1,0.1,0.1,0.2,0.1c0.1,0,0.2,0,0.3-0.1c0.1-0.1,0.2-0.1,0.2-0.2V15
		h1.1L11.4,19.9L11.4,19.9z M15.1,17.9c0,0.7-0.1,1.3-0.3,1.6S14.4,20,14,20c-0.2,0-0.4,0-0.6-0.1c-0.2-0.1-0.3-0.2-0.4-0.4h0
		L13,19.9H12V13h1.1v2.6h0c0.1-0.2,0.2-0.3,0.4-0.4s0.4-0.2,0.6-0.2c0.3,0,0.5,0.1,0.6,0.2s0.3,0.4,0.3,0.7c0.1,0.3,0.1,0.7,0.1,1.3
		L15.1,17.9L15.1,17.9z M18.5,17.8h-1.8v0.2c0,0.3,0,0.5,0,0.7s0.1,0.3,0.1,0.3c0.1,0.1,0.1,0.1,0.3,0.1c0.2,0,0.3-0.1,0.3-0.2
		c0.1-0.1,0.1-0.3,0.1-0.6l0.9,0.1c0,0,0,0.1,0,0.2c0,0.5-0.1,0.8-0.4,1c-0.2,0.2-0.6,0.3-1,0.3c-0.5,0-0.9-0.2-1.1-0.5
		s-0.3-0.9-0.3-1.6v-0.9c0-0.7,0.1-1.3,0.3-1.6c0.2-0.3,0.6-0.5,1.2-0.5c0.4,0,0.7,0.1,0.9,0.2c0.2,0.1,0.3,0.4,0.4,0.6
		c0.1,0.3,0.1,0.7,0.1,1.2L18.5,17.8L18.5,17.8z"/>
</g>
</svg>
