<?xml version="1.0" encoding="utf-8"?>
<!-- Generator: Adobe Illustrator 24.3.0, SVG Export Plug-In . SVG Version: 6.00 Build 0)  -->
<svg version="1.1" id="Layer_1" xmlns="http://www.w3.org/2000/svg" xmlns:xlink="http://www.w3.org/1999/xlink" x="0px" y="0px"
	 viewBox="0 0 48 48" style="enable-background:new 0 0 48 48;" xml:space="preserve">
<style type="text/css">
	.st0{fill:#414141;}
	.st1{fill:#FFFFFF;}
</style>
<path class="st0" d="M14.5,6h2.1l1.4,5.5h0.1L19.5,6h2.1l-2.5,8v6h-2.1v-5.7L14.5,6z M21.5,11.9c0-0.8,0.3-1.4,0.8-1.9
	c0.5-0.5,1.2-0.7,2-0.7c0.8,0,1.4,0.2,1.9,0.7c0.5,0.5,0.7,1.1,0.7,1.9v5.2c0,0.9-0.2,1.5-0.7,2c-0.5,0.5-1.2,0.7-2,0.7
	c-0.8,0-1.5-0.3-2-0.8c-0.5-0.5-0.7-1.2-0.7-2.1L21.5,11.9L21.5,11.9L21.5,11.9z M23.5,17.4c0,0.3,0.1,0.5,0.2,0.6
	c0.1,0.1,0.3,0.2,0.6,0.2c0.3,0,0.5-0.1,0.6-0.2c0.1-0.2,0.2-0.4,0.2-0.6v-5.5c0-0.2-0.1-0.4-0.2-0.5c-0.2-0.1-0.4-0.2-0.6-0.2
	c-0.2,0-0.4,0.1-0.6,0.2c-0.1,0.1-0.2,0.3-0.2,0.5C23.5,11.8,23.5,17.4,23.5,17.4z M33.9,9.6V20H32v-1.3c-0.3,0.4-0.7,0.7-1.1,0.9
	c-0.4,0.2-0.7,0.3-1.1,0.3c-0.4,0-0.8-0.1-1-0.5c-0.2-0.3-0.3-0.8-0.3-1.4V9.6h1.9v7.9c0,0.2,0,0.4,0.1,0.5c0.1,0.1,0.2,0.2,0.4,0.2
	c0.1,0,0.3-0.1,0.5-0.2c0.2-0.1,0.4-0.3,0.6-0.5V9.6H33.9z"/>
<path class="st1" d="M38.8,26.4c0-2.3-1.9-4.2-4.3-4.2C31.1,22.1,27.6,22,24,22c-3.6,0-7.1,0.1-10.5,0.2c-2.4,0-4.3,1.9-4.3,4.2
	C9.1,28.3,9,30.1,9,32c0,1.9,0.1,3.7,0.2,5.6c0,2.3,1.9,4.2,4.3,4.2C16.9,41.9,20.4,42,24,42c3.6,0,7.1-0.1,10.5-0.2
	c2.4,0,4.3-1.9,4.3-4.2c0.1-1.9,0.2-3.7,0.2-5.6C39,30.1,38.9,28.3,38.8,26.4z"/>
<g>
	<path class="st0" d="M33.9,30.3c-0.2,0-0.4,0.1-0.5,0.2c-0.1,0.1-0.1,0.3-0.1,0.8v0.8h1.2v-0.8c0-0.4-0.1-0.7-0.2-0.8
		C34.2,30.4,34.1,30.3,33.9,30.3z M26.9,30.4c-0.1,0-0.2,0.1-0.3,0.2v5.9c0.1,0.1,0.2,0.2,0.3,0.2c0.1,0.1,0.2,0.1,0.3,0.1
		c0.2,0,0.3-0.1,0.3-0.1c0.1-0.1,0.1-0.2,0.1-0.5v-5c0-0.3-0.1-0.5-0.2-0.6C27.4,30.3,27.2,30.2,26.9,30.4z"/>
	<path class="st0" d="M38.8,26.4c0-2.3-1.9-4.2-4.3-4.2C31.1,22.1,27.6,22,24,22c-3.6,0-7.1,0.1-10.5,0.2c-2.4,0-4.3,1.9-4.3,4.2
		C9.1,28.3,9,30.1,9,32c0,1.9,0.1,3.7,0.2,5.6c0,2.3,1.9,4.2,4.3,4.2C16.9,41.9,20.4,42,24,42c3.6,0,7.1-0.1,10.5-0.2
		c2.4,0,4.3-1.9,4.3-4.2c0.1-1.9,0.2-3.7,0.2-5.6C39,30.1,38.9,28.3,38.8,26.4z M15.7,38.4c0,0.1-0.1,0.2-0.2,0.2h-2
		c-0.1,0-0.2-0.1-0.2-0.2v-11h-1.9c-0.1,0-0.2-0.1-0.2-0.2v-1.9c0-0.1,0.1-0.2,0.2-0.2h6.3c0.1,0,0.2,0.1,0.2,0.2v1.9
		c0,0.1-0.1,0.2-0.2,0.2h-1.9V38.4z M23,38.4c0,0.1-0.1,0.2-0.2,0.2H21c-0.1,0-0.2-0.1-0.2-0.2v-0.6c-0.2,0.2-0.5,0.4-0.7,0.6
		c-0.4,0.2-0.8,0.3-1.2,0.3c-0.5,0-0.9-0.2-1.1-0.5c-0.2-0.3-0.4-0.8-0.4-1.4v-8.1c0-0.1,0.1-0.2,0.2-0.2h1.8c0.1,0,0.2,0.1,0.2,0.2
		v7.4c0,0.2,0,0.3,0.1,0.4c0,0,0,0.1,0.2,0.1c0.1,0,0.2,0,0.4-0.2c0.2-0.1,0.3-0.3,0.5-0.4v-7.3c0-0.1,0.1-0.2,0.2-0.2h1.8
		c0.1,0,0.2,0.1,0.2,0.2L23,38.4L23,38.4L23,38.4z M30,36.4c0,0.7-0.2,1.3-0.5,1.7c-0.3,0.4-0.8,0.6-1.4,0.6c-0.4,0-0.7-0.1-1-0.2
		c-0.2-0.1-0.3-0.2-0.5-0.3v0.2c0,0.1-0.1,0.2-0.2,0.2h-1.8c-0.1,0-0.2-0.1-0.2-0.2V25.2c0-0.1,0.1-0.2,0.2-0.2h1.8
		c0.1,0,0.2,0.1,0.2,0.2V29c0.1-0.1,0.3-0.2,0.5-0.3c0.3-0.2,0.6-0.3,0.9-0.3c0.6,0,1.1,0.2,1.5,0.7c0.3,0.5,0.5,1.1,0.5,1.9
		L30,36.4L30,36.4z M36.7,33.8c0,0.1-0.1,0.2-0.2,0.2h-3.3v1.6c0,0.6,0.1,0.8,0.1,1c0.1,0.1,0.2,0.2,0.4,0.2c0.2,0,0.4-0.1,0.5-0.2
		c0-0.1,0.1-0.3,0.1-1v-0.7c0-0.1,0.1-0.2,0.2-0.2h1.9c0.1,0,0.2,0.1,0.2,0.2v0.7c0,1-0.2,1.8-0.7,2.4c-0.5,0.5-1.2,0.8-2.2,0.8
		c-0.9,0-1.6-0.3-2.1-0.9c-0.5-0.6-0.8-1.4-0.8-2.3v-4.4c0-0.9,0.3-1.6,0.8-2.2c0.6-0.6,1.3-0.9,2.1-0.9c0.9,0,1.6,0.3,2.1,0.8
		c0.5,0.5,0.7,1.3,0.7,2.3L36.7,33.8L36.7,33.8L36.7,33.8z"/>
</g>
</svg>
